<svg width="431" height="246" viewBox="0 0 431 246" fill="none" xmlns="http://www.w3.org/2000/svg">
<path d="M0 81.9357C0 76.9292 0 71.6592 0.295999 66.3891C8.584 62.4366 51.504 44.5185 60.68 40.8295C69.56 36.877 93.536 27.391 102.712 23.7019C104.192 23.175 105.968 23.7019 106.856 25.0195C108.928 29.2355 111 44.782 111 61.6461C105.08 64.2811 83.472 73.2402 74.592 76.9292C70.448 78.5102 58.904 83.5167 48.544 86.4152C60.68 90.3677 74.592 96.1648 78.736 97.7458C87.616 101.698 99.16 106.441 107.744 110.13C109.52 110.921 110.704 112.502 110.704 114.346C110.704 119.88 109.816 143.331 107.744 151.5C101.528 149.392 65.416 134.372 56.536 130.683C47.36 126.994 12.136 111.448 3.256 107.495C1.776 106.705 1.48 105.651 1.184 104.07C0.295999 96.9553 0 89.5772 0 81.9357Z" fill="#9C9C9C"/>
<path d="M112.772 8.52563C122.266 8.26282 129.979 8 139.769 8C149.856 8 158.756 8 168.843 8.52563C170.623 8.78844 172.107 9.83968 172.403 11.1537C177.447 33.2298 180.71 55.3058 183.974 77.3818C189.314 57.6711 196.73 32.4413 202.96 16.6727L216.904 16.1471L230.551 16.6727C236.484 32.1785 243.901 56.8826 249.241 76.3306C252.505 53.7289 255.768 31.1273 259.921 8.52563C269.415 8.26282 276.832 8 283.655 8C293.742 8 305.015 8.26282 315.102 8.52563C316.586 8.52563 317.772 9.57687 317.772 10.8909C317.772 11.6794 316.882 16.4099 316.289 19.3008C308.279 67.1322 296.709 117.855 282.468 166.212C272.975 166.737 248.945 167 239.154 167C232.034 145.975 223.134 124.95 216.607 103.4C209.487 124.95 199.994 145.712 193.17 167C183.084 167 161.426 166.737 151.34 166.212C149.856 166.212 148.373 165.16 147.78 163.583C133.539 113.387 120.782 59.7736 112.772 8.52563Z" fill="#9C9C9C"/>
<path d="M319.545 113.275C325.169 110.635 346.777 101.921 355.657 97.9606C359.801 96.3763 371.641 91.3595 381.705 88.455C369.569 84.7584 355.953 78.6853 351.809 77.1011C342.633 73.1404 331.089 68.3876 322.505 64.691C320.729 63.8988 319.545 62.3146 319.545 60.4663C319.545 54.9213 320.729 31.4213 322.801 23.5C328.721 25.6123 364.833 40.3989 373.713 44.0955C382.889 47.7921 418.113 63.3707 426.993 67.5955C428.473 68.1236 428.769 69.4438 429.065 70.764C429.953 78.1572 430.545 85.2865 430.545 92.9437C430.545 97.9606 430.249 103.241 429.953 108.522C421.665 112.483 378.745 130.702 369.865 134.399C360.689 138.095 336.713 147.865 327.537 151.298C326.057 151.826 324.281 151.298 323.393 149.977C321.321 145.753 319.545 130.174 319.545 113.275Z" fill="#9C9C9C"/>
<path d="M32 236.951C32 236.79 32.2448 235.257 32.4079 234.451C34.8556 219.689 38.2823 204.12 41.301 189.197C44.9725 189.036 48.7255 189.036 52.5602 189.036C56.4764 189.036 60.311 189.117 64.2273 189.197C64.6352 189.197 65.0431 189.601 65.1247 190.004C68.2251 205.492 72.0597 221.947 74.4258 237.597C71.8965 237.758 70.1016 237.839 67.3276 237.839C64.5536 237.839 62.1876 237.839 59.332 237.597C58.924 237.597 58.5161 237.274 58.4345 236.79C57.8634 234.209 57.3739 231.466 56.9659 228.723H49.3782C48.8887 231.708 48.3992 234.693 47.8281 237.597C45.2173 237.758 43.7487 237.839 41.0563 237.839C38.2823 237.839 35.4267 237.758 32.7343 237.597C32.3264 237.597 32 237.355 32 236.951ZM50.7652 218.237H55.3342C54.4367 212.268 53.6208 206.218 52.8049 200.168C52.0706 206.137 51.4179 212.187 50.7652 218.237Z" fill="#9C9C9C"/>
<path d="M73.0445 195.328C73.0445 193.392 73.0445 191.375 73.1261 189.197C75.6553 189.117 89.2805 189.036 91.9729 189.036C94.7469 189.036 106.088 189.117 108.862 189.197C109.27 189.197 109.596 189.601 109.678 190.004C109.678 192.343 109.678 194.602 109.678 196.941C109.678 198.877 109.678 200.894 109.678 202.91C108.291 202.991 103.966 203.072 99.7238 203.072C99.8054 206.379 99.8869 209.686 99.8869 213.397C99.8869 221.464 99.7238 229.53 99.5606 237.597C96.9498 237.758 95.0733 237.839 92.3809 237.839C89.6069 237.839 86.7513 237.758 84.0589 237.597C83.5694 237.597 83.243 237.274 83.243 236.79C83.0798 229.207 82.9166 221.464 82.9166 213.397C82.9166 209.686 82.9166 206.379 82.9166 202.991C79.2452 202.91 75.329 202.83 73.942 202.749C73.4524 202.749 73.1261 202.426 73.1261 201.942C73.0445 199.684 73.0445 197.506 73.0445 195.328Z" fill="#9C9C9C"/>
<path d="M113.101 213.397C113.101 205.33 113.183 197.264 113.427 189.197C115.957 189.117 127.624 189.036 130.316 189.036C133.09 189.036 141.82 189.117 144.594 189.197C145.002 189.197 145.328 189.601 145.41 190.004C145.41 192.504 145.41 194.763 145.41 197.022C145.41 198.958 145.41 200.894 145.41 202.91C142.799 203.072 135.13 203.072 132.437 203.072C131.785 203.072 130.642 203.072 129.255 203.072C129.255 204.443 129.255 205.895 129.255 207.347C132.519 207.347 136.925 207.428 139.046 207.428C139.454 207.428 139.78 207.831 139.862 208.234C139.862 210.493 139.862 212.429 139.862 214.365C139.862 216.059 139.862 217.753 139.862 219.689H129.255C129.255 221.141 129.255 222.512 129.255 223.883H130.316C133.09 223.883 141.983 223.964 144.757 224.045C145.165 224.045 145.491 224.448 145.573 224.851C145.573 227.352 145.573 229.611 145.573 231.869C145.573 233.805 145.573 235.741 145.573 237.758C142.962 237.919 134.232 238 131.54 238C128.766 238 116.936 237.758 114.243 237.597C113.754 237.597 113.427 237.274 113.427 236.79C113.264 229.207 113.101 221.464 113.101 213.397Z" fill="#9C9C9C"/>
<path d="M150.15 213.397C150.15 205.33 150.232 197.264 150.477 189.197C153.006 189.117 154.882 189.036 157.575 189.036C160.349 189.036 163.204 189.117 165.978 189.197C166.386 189.197 166.794 189.601 166.794 190.004C166.957 197.586 167.121 205.33 167.121 213.397C167.121 217.027 167.039 220.496 167.039 223.883H167.365C170.139 223.883 177.074 223.964 179.848 224.045C180.256 224.045 180.583 224.448 180.664 224.851C180.664 227.352 180.664 229.611 180.664 231.869C180.664 233.805 180.664 235.741 180.664 237.758C178.053 237.919 171.282 238 168.589 238C165.815 238 153.985 237.758 151.292 237.597C150.803 237.597 150.477 237.274 150.477 236.79C150.313 229.207 150.15 221.464 150.15 213.397Z" fill="#9C9C9C"/>
<path d="M183.614 213.397C183.614 205.33 183.696 197.264 183.94 189.197C186.47 189.117 188.346 189.036 191.039 189.036C193.813 189.036 196.668 189.117 199.442 189.197C199.85 189.197 200.258 189.601 200.258 190.004C200.421 197.586 200.584 205.33 200.584 213.397C200.584 221.464 200.421 229.53 200.258 237.597C197.647 237.758 195.771 237.839 193.078 237.839C190.304 237.839 187.449 237.758 184.756 237.597C184.267 237.597 183.94 237.274 183.94 236.79C183.777 229.207 183.614 221.464 183.614 213.397Z" fill="#9C9C9C"/>
<path d="M204.931 187.584C207.052 183.631 209.745 179.759 212.519 176.049C212.845 175.645 213.334 175.323 213.742 175.323C217.903 175.081 221.412 175 225.328 175C227.123 175 228.918 175.081 230.957 175.081C233.568 177.985 236.097 181.211 238.627 184.599C239.035 185.083 240.258 186.535 240.258 187.019C240.258 187.181 240.177 187.342 239.851 187.342C237.484 187.423 235.445 187.503 233.323 187.503C231.529 187.503 229.652 187.423 227.449 187.342C225.246 184.277 223.941 181.776 222.472 179.033C221.248 181.615 219.861 184.115 218.474 186.777C218.23 187.181 217.659 187.584 217.169 187.584C214.64 187.665 212.6 187.745 210.56 187.745C208.765 187.745 207.052 187.665 204.931 187.584ZM206.481 213.397C206.481 205.33 206.563 197.264 206.807 189.197C209.337 189.117 221.004 189.036 223.696 189.036C226.47 189.036 235.2 189.117 237.974 189.197C238.382 189.197 238.708 189.601 238.79 190.004C238.79 192.504 238.79 194.763 238.79 197.022C238.79 198.958 238.79 200.894 238.79 202.91C236.179 203.072 228.51 203.072 225.817 203.072C225.165 203.072 224.022 203.072 222.635 203.072C222.635 204.443 222.635 205.895 222.635 207.347C225.899 207.347 230.305 207.428 232.426 207.428C232.834 207.428 233.16 207.831 233.242 208.234C233.242 210.493 233.242 212.429 233.242 214.365C233.242 216.059 233.242 217.753 233.242 219.689H222.635C222.635 221.141 222.635 222.512 222.635 223.883H223.696C226.47 223.883 235.363 223.964 238.137 224.045C238.545 224.045 238.871 224.448 238.953 224.851C238.953 227.352 238.953 229.611 238.953 231.869C238.953 233.805 238.953 235.741 238.953 237.758C236.342 237.919 227.612 238 224.92 238C222.146 238 210.316 237.758 207.623 237.597C207.134 237.597 206.807 237.274 206.807 236.79C206.644 229.207 206.481 221.464 206.481 213.397Z" fill="#9C9C9C"/>
<path d="M264.646 189.197C267.256 189.117 269.378 189.036 272.07 189.036C274.844 189.036 277.292 189.036 280.066 189.197C280.555 189.278 280.963 189.601 281.045 190.004C282.432 196.78 283.329 203.556 284.227 210.332C285.695 204.282 287.735 196.538 289.448 191.698L293.283 191.536L297.036 191.698C298.668 196.457 300.707 204.04 302.176 210.009C303.074 203.072 303.971 196.134 305.113 189.197C307.724 189.117 309.764 189.036 311.64 189.036C314.414 189.036 317.515 189.117 320.289 189.197C320.697 189.197 321.023 189.52 321.023 189.923C321.023 190.165 320.778 191.617 320.615 192.504C318.412 207.186 315.23 222.754 311.314 237.597C308.703 237.758 302.094 237.839 299.402 237.839C297.444 231.385 294.996 224.932 293.201 218.318C291.243 224.932 288.632 231.305 286.756 237.839C283.982 237.839 278.026 237.758 275.252 237.597C274.844 237.597 274.436 237.274 274.273 236.79C270.357 221.383 266.848 204.927 264.646 189.197Z" fill="#9C9C9C"/>
<path d="M323.604 213.397C323.604 205.33 323.686 197.264 323.931 189.197C326.46 189.117 338.127 189.036 340.819 189.036C343.593 189.036 352.323 189.117 355.097 189.197C355.505 189.197 355.832 189.601 355.913 190.004C355.913 192.504 355.913 194.763 355.913 197.022C355.913 198.958 355.913 200.894 355.913 202.91C353.302 203.072 345.633 203.072 342.941 203.072C342.288 203.072 341.146 203.072 339.759 203.072C339.759 204.443 339.759 205.895 339.759 207.347C343.022 207.347 347.428 207.428 349.549 207.428C349.957 207.428 350.284 207.831 350.365 208.234C350.365 210.493 350.365 212.429 350.365 214.365C350.365 216.059 350.365 217.753 350.365 219.689H339.759C339.759 221.141 339.759 222.512 339.759 223.883H340.819C343.593 223.883 352.487 223.964 355.261 224.045C355.668 224.045 355.995 224.448 356.076 224.851C356.076 227.352 356.076 229.611 356.076 231.869C356.076 233.805 356.076 235.741 356.076 237.758C353.466 237.919 344.736 238 342.043 238C339.269 238 327.439 237.758 324.747 237.597C324.257 237.597 323.931 237.274 323.931 236.79C323.768 229.207 323.604 221.464 323.604 213.397Z" fill="#9C9C9C"/>
<path d="M376.808 206.944H377.379C379.908 206.944 382.111 205.734 382.111 203.475C382.111 201.297 379.99 200.248 377.869 200.248C377.542 200.248 377.053 200.248 376.89 200.329C376.808 202.346 376.808 204.443 376.808 206.944ZM376.89 218.882C376.89 221.06 376.971 223.238 377.053 225.416H378.358C381.459 225.416 382.682 224.206 382.682 222.109C382.682 220.254 381.132 218.882 378.929 218.882H376.89ZM360.817 212.348C360.817 204.282 360.98 198.07 360.98 190.004C366.365 189.197 372.321 188.633 376.89 188.633C388.23 188.633 396.552 189.601 396.552 202.668C396.552 206.944 394.757 210.574 391.82 213.074C396.308 215.575 399 219.124 399 222.996C399 235.822 390.188 238 379.174 238C373.626 238 367.425 237.758 361.796 237.113C361.306 237.032 360.98 236.629 360.98 236.145C360.98 228.562 360.817 220.415 360.817 212.348Z" fill="#9C9C9C"/>
</svg>
